# Blender 4.1.1
# www.blender.org
mtllib pine tree.mtl
o Pine_tree
v 0.197102 3.726848 -0.197102
v 0.476679 -0.218686 -0.476679
v 0.197102 3.726848 0.197102
v 0.476679 -0.218686 0.476679
v -0.197102 3.726848 -0.197102
v -0.476679 -0.218686 -0.476679
v -0.197102 3.726848 0.197102
v -0.476679 -0.218686 0.476679
v -0.126734 15.657511 0.126734
v -3.177345 2.481470 -3.177345
v -0.126734 15.657511 -0.126734
v 0.126734 15.657511 0.126734
v 3.177345 2.481470 -3.177345
v 0.126734 15.657511 -0.126734
v -4.396072 2.481470 0.000000
v -0.126734 15.657511 0.000000
v 4.396072 2.481470 0.000000
v 0.126734 15.657511 0.000000
v 0.000000 15.657511 -0.126734
v 0.000000 2.481470 4.396072
v 0.000000 15.657511 0.126734
v 0.000000 16.231550 0.000000
v 0.000000 3.408397 0.000000
v -0.842879 13.661791 0.944385
v -0.981296 13.661791 -0.981296
v 1.196243 13.661791 0.000000
v 0.000000 13.661791 1.196243
v 0.000000 13.661791 -1.196243
v -2.657626 6.620818 -2.657626
v 2.657626 6.620818 2.657626
v 3.618024 6.620818 0.000000
v -3.618024 6.620818 0.000000
v 0.000000 6.620818 3.618024
v 0.000000 6.620818 -3.618024
v -1.824897 10.504122 1.868275
v -1.845873 10.471898 -1.956999
v 2.099227 10.353939 -2.099227
v 1.863913 10.443404 2.105100
v 2.535461 10.443404 0.005873
v -2.517421 10.471898 0.142228
v 0.000000 10.353939 2.770775
v 0.000000 10.617237 -2.411058
v -0.473476 13.781563 0.473476
v -0.473476 13.781563 -0.473476
v 0.473476 13.781563 -0.473476
v 0.473476 13.781563 0.473476
v 0.581868 13.781563 0.000000
v -0.581868 13.781563 0.000000
v 0.000000 13.781563 0.581868
v 0.000000 13.781563 -0.581868
v -0.624758 13.981005 0.717035
v -0.790857 13.981005 -0.790857
v 0.790857 13.981005 -0.790857
v 0.790857 13.981005 0.790857
v 0.957180 13.981005 0.000000
v -0.957180 13.981005 0.000000
v 0.000000 13.981005 0.957180
v 0.000000 13.981005 -0.957180
v -0.856312 10.489592 -0.856312
v 0.856312 10.489592 -0.856312
v 0.856312 10.489592 0.856312
v 1.133161 10.489592 0.000000
v -1.133161 10.489592 0.000000
v 0.000000 10.489592 1.133161
v 0.000000 10.489592 -1.133161
v -0.856312 10.489592 0.856312
v -1.269174 11.469398 -1.269174
v 1.269174 11.469398 -1.269174
v 1.269174 11.469398 1.269174
v 1.670550 11.469398 -0.000000
v -1.670550 11.469398 -0.000000
v 0.000000 11.469398 1.670550
v 0.000000 11.469398 -1.670550
v -1.158441 11.978769 1.269174
v -1.299495 6.735220 -1.299495
v 1.299495 6.735220 -1.299495
v 1.299495 6.735220 1.299495
v 1.771606 6.735220 0.000000
v -1.771606 6.735220 0.000000
v 0.000000 6.735220 1.771606
v 0.000000 6.735220 -1.771606
v -1.299495 6.735220 1.299495
v -1.783950 8.097973 -1.783950
v 1.783950 8.097973 -1.783950
v 1.783950 8.097973 1.783950
v 2.414115 8.097973 0.000000
v -2.414115 8.097973 0.000000
v 0.000000 8.097973 2.414115
v 0.000000 8.097973 -2.414115
v -1.783950 8.097973 1.783950
v -2.039016 4.500282 -2.039016
v 2.039016 4.500282 -2.039016
v 2.039016 4.500282 2.039016
v 2.808514 4.500282 0.000000
v -2.808514 4.500282 0.000000
v 0.000000 4.500282 2.808514
v 0.000000 4.500282 -2.808514
v -2.039016 4.500282 2.039016
v 2.216321 10.132231 2.381143
v 3.009040 10.110188 0.036991
v 1.764253 10.353943 2.255896
v -1.733145 10.845896 1.733145
v -1.706478 10.353939 2.224868
v -1.377944 10.432661 1.377944
v -2.206591 10.353939 1.763612
v 0.000000 10.421766 -1.951968
v -0.369223 10.353939 -2.652660
v 0.403762 10.353939 -2.641611
v 0.000000 10.941605 -2.191135
v -2.352369 10.164976 -2.102775
v -3.023917 10.164976 -0.003549
v 1.020162 13.661791 0.803858
v 0.802275 13.661791 1.020509
v -1.166782 13.661791 -0.134498
v -1.159684 13.661791 0.166903
v 0.809048 13.661791 -1.019025
v 1.017797 13.661791 -0.814654
v 2.824354 6.620818 -2.196253
v 2.269509 6.620818 -2.797881
v 3.007472 6.434047 2.682186
v 3.967870 6.434047 0.024560
v -3.143906 6.299346 -2.795076
v -4.104305 6.299346 -0.137450
v -2.399227 6.620818 2.751004
v -2.772612 6.620818 2.339433
v 2.312321 6.620818 2.782410
v 0.701624 2.481470 -4.126951
v -0.660823 2.481470 -4.142601
v 2.669083 2.481470 3.372297
v 3.391044 2.481470 2.620209
v 1.882075 2.755831 1.880711
v -2.582994 2.481470 3.405318
v 0.145069 3.377809 0.000000
v 0.000000 3.381087 0.129520
v 0.067998 3.384820 0.067949
v -2.386694 2.481470 2.434745
v -3.401027 2.481470 2.594182
vn 0.7036 0.0997 -0.7036
vn 0.7036 0.0997 0.7036
vn -0.7036 0.0997 -0.7036
vn -0.7036 0.0997 0.7036
vn -0.6413 0.3885 0.6616
vn -0.6271 -0.4319 -0.6483
vn -0.6395 0.4267 -0.6395
vn 0.6395 0.4267 0.6395
vn 0.6263 -0.4319 -0.6490
vn 0.6395 0.4267 -0.6395
vn -0.9040 -0.4275 -0.0008
vn -0.9458 0.3216 0.0448
vn 0.9011 -0.4332 0.0196
vn 0.9453 0.3262 -0.0000
vn -0.0000 0.3262 -0.9453
vn 0.0195 -0.4354 0.9000
vn -0.0297 0.3234 0.9458
vn -0.0000 1.0000 -0.0000
vn -0.0012 -0.9993 -0.0365
vn -0.6201 -0.4086 0.6698
vn -0.6515 -0.3895 -0.6510
vn 0.8751 -0.4839 -0.0000
vn -0.0475 -0.4640 0.8846
vn -0.0004 -0.4841 -0.8750
vn -0.2318 0.0509 -0.9714
vn 0.0675 -0.0957 0.9931
vn 0.6950 0.4058 -0.5936
vn -0.7876 0.2025 0.5819
vn -0.0000 -0.3929 0.9196
vn -0.0002 -0.3930 -0.9195
vn -0.6499 -0.4068 0.6420
vn -0.2633 0.0475 -0.9635
vn 0.6897 -0.3356 -0.6416
vn -0.1922 0.4825 0.8546
vn 0.7459 0.4080 -0.5266
vn -0.8344 0.0832 0.5448
vn -0.0068 -0.3669 0.9302
vn 0.0354 0.0160 -0.9992
vn -0.4202 -0.7943 0.4387
vn -0.4458 -0.7762 -0.4458
vn 0.4768 -0.7382 -0.4771
vn 0.4786 -0.7361 0.4787
vn 0.7185 -0.6955 -0.0000
vn -0.7722 -0.6340 -0.0415
vn 0.0678 -0.6841 0.7263
vn -0.0001 -0.6955 -0.7185
vn -0.5511 0.5770 0.6028
vn -0.5689 0.5940 -0.5687
vn 0.6575 0.3636 -0.6599
vn 0.6618 0.3509 0.6625
vn 0.8533 0.5215 -0.0000
vn -0.9391 0.3318 0.0893
vn -0.0499 0.5370 0.8421
vn -0.0001 0.5213 -0.8534
vn -0.4661 -0.6994 -0.5418
vn 0.5256 -0.6899 -0.4977
vn 0.4587 -0.6946 0.5542
vn 0.7453 -0.6641 -0.0596
vn -0.7513 -0.6581 0.0487
vn 0.0010 -0.6494 0.7605
vn -0.0243 -0.6465 -0.7626
vn -0.5322 -0.6898 0.4908
vn -0.5859 0.5892 -0.5564
vn 0.5668 0.6149 -0.5483
vn 0.5854 0.5855 0.5608
vn 0.8322 0.5543 0.0106
vn -0.8430 0.5364 -0.0413
vn 0.0322 0.5683 0.8222
vn -0.0082 0.5794 -0.8150
vn -0.5556 0.5349 0.6366
vn -0.4443 -0.7213 -0.5313
vn 0.5679 -0.5989 -0.5646
vn -0.0042 -0.5568 0.8306
vn 0.7235 -0.6894 -0.0350
vn -0.7144 -0.6973 0.0573
vn -0.0000 -0.6733 0.7393
vn -0.0000 -0.6733 -0.7394
vn -0.5489 -0.6320 0.5471
vn -0.5757 0.5807 -0.5757
vn 0.6108 0.5061 -0.6089
vn 0.2766 0.5442 0.7921
vn 0.8282 0.5604 0.0001
vn -0.8282 0.5604 -0.0001
vn -0.0000 0.5604 0.8282
vn -0.0001 0.5604 -0.8282
vn -0.5997 0.5310 0.5987
vn -0.5931 0.5444 -0.5932
vn 0.5931 0.5444 -0.5932
vn 0.6143 0.4959 0.6138
vn 0.8465 0.5323 -0.0001
vn -0.8465 0.5323 -0.0001
vn -0.0000 0.5324 0.8465
vn 0.0017 0.3639 -0.9314
vn -0.6052 0.5169 0.6055
vn 0.3569 -0.2831 0.8902
vn 0.8590 -0.3146 -0.4039
vn 0.8136 -0.3398 0.4717
vn -0.5490 0.6388 0.5389
vn -0.6007 -0.4200 0.6802
vn 0.0192 -0.9986 -0.0503
vn -0.6981 -0.4161 0.5827
vn -0.0177 -0.9998 -0.0014
vn 0.0246 -0.4287 -0.9031
vn -0.0486 -0.4228 -0.9049
vn -0.0120 0.6758 -0.7370
vn -0.5072 -0.2848 -0.8134
vn -0.8883 -0.2813 0.3632
vn 0.5116 -0.4580 0.7270
vn 0.7256 -0.4587 0.5129
vn -0.8156 -0.4831 0.3184
vn -0.8659 -0.4534 -0.2114
vn 0.7317 -0.4556 -0.5070
vn 0.5021 -0.4529 -0.7367
vn 0.4527 -0.3907 -0.8015
vn 0.8167 -0.3833 -0.4314
vn 0.5513 -0.2849 0.7842
vn 0.8854 -0.2385 -0.3989
vn -0.4891 -0.3102 -0.8152
vn -0.8926 -0.2985 0.3379
vn -0.8418 -0.3696 0.3934
vn -0.4109 -0.3760 0.8305
vn -0.0295 -0.2942 0.9553
vn -0.3423 -0.4290 -0.8359
vn 0.3495 -0.4261 -0.8345
vn 0.7915 -0.4451 0.4188
vn 0.4318 -0.4496 0.7819
vn -0.0212 -0.9995 -0.0247
vn -0.7645 -0.4366 0.4742
vn -0.1717 -0.9851 0.0118
vn 0.0221 -0.9855 -0.1683
vn -0.1571 -0.9750 -0.1572
vn -0.1647 -0.9763 0.1406
vn -0.4879 -0.4381 0.7549
vt 0.980457 0.642795
vt 0.970314 0.977678
vt 0.941386 0.977678
vt 0.946509 0.642795
vt 0.911872 0.977678
vt 0.911872 0.642795
vt 0.877236 0.642795
vt 0.882358 0.977678
vt 0.853431 0.977678
vt 0.843288 0.642795
vt 0.757073 0.669451
vt 0.679370 0.625424
vt 0.681780 0.621024
vt 0.758003 0.641530
vt 0.760787 0.617629
vt 0.682088 0.615567
vt 0.682391 0.610137
vt 0.765914 0.592792
vt 0.750096 0.568685
vt 0.680175 0.605197
vt 0.677989 0.600363
vt 0.745115 0.532177
vt 0.714223 0.702584
vt 0.672506 0.632945
vt 0.676987 0.629808
vt 0.731914 0.685809
vt 0.167420 0.779277
vt 0.163809 0.780842
vt 0.162488 0.777438
vt 0.657805 0.614025
vt 0.328534 0.693669
vt 0.336933 0.800519
vt 0.222668 0.609379
vt 0.105101 0.653351
vt 0.112256 0.613156
vt 0.690066 0.728534
vt 0.668111 0.635985
vt 0.805678 0.651406
vt 0.769368 0.642868
vt 0.772833 0.618918
vt 0.802585 0.617746
vt 0.768845 0.717903
vt 0.742134 0.697015
vt 0.753620 0.684471
vt 0.782247 0.682305
vt 0.800934 0.586848
vt 0.768019 0.579834
vt 0.764488 0.564096
vt 0.792215 0.556631
vt 0.741901 0.736753
vt 0.723431 0.713409
vt 0.757900 0.547750
vt 0.784406 0.526551
vt 0.771654 0.604108
vt 0.766927 0.657732
vt 0.023966 0.437966
vt 0.035782 0.281070
vt 0.139644 0.320668
vt 0.140316 0.321250
vt 0.130403 0.499151
vt 0.196137 0.422194
vt 0.224624 0.450676
vt 0.225230 0.511121
vt 0.327226 0.598680
vt 0.253574 0.580427
vt 0.336252 0.534234
vt 0.337593 0.534133
vt 0.054905 0.147768
vt 0.138184 0.133431
vt 0.138919 0.177233
vt 0.095078 0.212567
vt 0.281521 0.502748
vt 0.321290 0.527153
vt 0.137370 0.256165
vt 0.136351 0.306077
vt 0.044610 0.069523
vt 0.139955 0.031324
vt 0.154230 0.351380
vt 0.643110 0.847113
vt 0.610606 0.908228
vt 0.585142 0.893787
vt 0.599621 0.850210
vt 0.668528 0.755205
vt 0.624296 0.754370
vt 0.603868 0.731581
vt 0.593831 0.673690
vt 0.649674 0.660095
vt 0.580975 0.543581
vt 0.616676 0.587856
vt 0.591383 0.574798
vt 0.581746 0.560644
vt 0.539692 0.968225
vt 0.520894 0.948509
vt 0.535552 0.934465
vt 0.557981 0.938883
vt 0.574489 0.949321
vt 0.584346 0.588865
vt 0.545473 0.921245
vt 0.562647 0.902401
vt 0.513563 0.978322
vt 0.507818 0.964244
vt 0.581000 0.830471
vt 0.597446 0.763272
vt 0.529524 0.869776
vt 0.429584 0.832548
vt 0.427967 0.792489
vt 0.542405 0.815596
vt 0.546694 0.749042
vt 0.424581 0.746537
vt 0.425413 0.699844
vt 0.549921 0.679965
vt 0.545582 0.617655
vt 0.422548 0.661725
vt 0.420066 0.627304
vt 0.547247 0.566519
vt 0.499364 0.936762
vt 0.425365 0.892417
vt 0.428984 0.865906
vt 0.498975 0.902729
vt 0.489826 0.966970
vt 0.420066 0.912346
vt 0.213961 0.340178
vt 0.313328 0.307138
vt 0.326833 0.344490
vt 0.242553 0.396255
vt 0.232144 0.064607
vt 0.334071 0.153779
vt 0.312861 0.189478
vt 0.204563 0.145411
vt 0.174351 0.218231
vt 0.302059 0.228705
vt 0.303037 0.269225
vt 0.194680 0.289080
vt 0.272930 0.453567
vt 0.345534 0.375515
vt 0.372059 0.399768
vt 0.334088 0.480883
vt 0.397667 0.415362
vt 0.377141 0.503639
vt 0.577105 0.750307
vt 0.540186 0.928049
vt 0.529016 0.920603
vt 0.572963 0.564822
vt 0.598418 0.750044
vt 0.544728 0.270211
vt 0.628888 0.269687
vt 0.643915 0.302657
vt 0.546119 0.395457
vt 0.762481 0.101143
vt 0.751541 0.176708
vt 0.708598 0.179042
vt 0.691461 0.101069
vt 0.618917 0.127113
vt 0.668791 0.194650
vt 0.642331 0.228802
vt 0.569036 0.190000
vt 0.670705 0.403161
vt 0.676066 0.319393
vt 0.717509 0.308962
vt 0.749323 0.382989
vt 0.753738 0.285645
vt 0.806997 0.340106
vt 0.360757 0.542599
vt 0.802384 0.590362
vt 0.782985 0.521507
vt 0.849971 0.552782
vt 0.493371 0.144351
vt 0.449542 0.242001
vt 0.792474 0.456331
vt 0.858123 0.399133
vt 0.680676 0.017856
vt 0.598426 0.044625
vt 0.695296 0.497085
vt 0.549309 0.078201
vt 0.578555 0.067247
vt 0.861648 0.346028
vt 0.434819 0.329971
vt 0.708917 0.723085
vt 0.718014 0.755874
vt 0.374662 0.551797
vt 0.414129 0.567244
vt 0.408464 0.578901
vt 0.374458 0.563545
vt 0.213712 0.016494
vt 0.252162 0.046388
vt 0.244736 0.052752
vt 0.207529 0.028899
vt 0.394427 0.681047
vt 0.367692 0.752786
vt 0.339275 0.679869
vt 0.367692 0.609379
vt 0.371667 0.803232
vt 0.371667 0.879790
vt 0.316016 0.855710
vt 0.167412 0.779270
vt 0.308197 0.875390
vt 0.233289 0.949393
vt 0.098255 0.943962
vt 0.165148 0.784711
vt 0.609421 0.508196
vt 0.434819 0.505523
vt 0.769222 0.023416
vt 0.803284 0.064441
vt 0.067470 0.822612
vt 0.016999 0.867640
vt 0.071300 0.633159
vt -0.000000 0.716922
vt -0.000000 0.830590
s 1
usemtl pine_tree_material
f 4/1/2 3/2/2 7/3/4 8/4/4
f 8/4/4 7/3/4 5/5/3 6/6/3
f 2/7/1 1/8/1 3/9/2 4/10/2
f 6/6/3 5/5/3 1/8/1 2/7/1
f 56/11/52 16/12/12 11/13/7 52/14/48
f 58/15/54 19/16/15 14/17/10 53/18/49
f 55/19/51 18/20/14 12/21/8 54/22/50
f 57/23/53 21/24/17 9/25/5 51/26/47
f 23/27/19 135/28/131 134/29/130
f 22/30/18 9/25/5 21/24/17
f 19/16/15 11/13/7 22/30/18
f 53/18/49 14/17/10 18/20/14 55/19/51
f 51/26/47 9/25/5 16/12/12 56/11/52
f 10/31/6 128/32/124 23/27/19 15/33/11
f 14/17/10 22/30/18 18/20/14
f 18/20/14 22/30/18 12/21/8
f 15/33/11 23/27/19 134/29/130 136/34/132 137/35/133
f 54/36/50 12/37/8 21/24/17 57/23/53
f 52/14/48 11/13/7 19/16/15 58/15/54
f 44/38/40 25/39/21 28/40/24 50/41/46
f 12/37/8 22/30/18 21/24/17
f 22/30/18 14/17/10 19/16/15
f 9/25/5 22/30/18 16/12/12
f 22/30/18 11/13/7 16/12/12
f 43/42/39 24/43/20 115/44/111 48/45/44
f 45/46/41 117/47/113 26/48/22 47/49/43
f 49/50/45 27/51/23 24/43/20 43/42/39
f 47/49/43 26/48/22 112/52/108 46/53/42
f 50/41/46 28/40/24 116/54/112 45/46/41
f 48/45/44 114/55/110 25/39/21 44/38/40
f 75/56/71 79/57/75 123/58/119 122/59/118
f 81/60/77 34/61/30 119/62/115 76/63/72
f 77/64/73 78/65/74 121/66/117 120/67/116
f 80/68/76 33/69/29 124/70/120 82/71/78
f 76/63/72 118/72/114 31/73/27 78/65/74
f 82/71/78 125/74/121 32/75/28 79/57/75
f 77/76/73 126/77/122 33/69/29 80/68/76
f 75/56/71 29/78/25 34/61/30 81/60/77
f 59/79/55 63/80/59 111/81/107 110/82/106
f 65/83/61 106/84/102 108/85/104 37/86/33 60/87/56
f 61/88/57 62/89/58 100/90/96 99/91/95
f 64/92/60 41/93/37 103/94/99 104/95/100 66/96/62
f 60/87/56 37/86/33 39/97/35 62/89/58
f 66/96/62 104/95/100 105/98/101 40/99/36 63/80/59
f 61/100/57 101/101/97 41/93/37 64/92/60
f 59/79/55 36/102/32 107/103/103 106/84/102 65/83/61
f 71/104/67 48/105/44 44/106/40 67/107/63
f 73/108/69 50/109/46 45/110/41 68/111/64
f 70/112/66 47/113/43 46/114/42 69/115/65
f 72/116/68 49/117/45 43/118/39 74/119/70
f 68/111/64 45/110/41 47/113/43 70/112/66
f 74/119/70 43/118/39 48/105/44 71/104/67
f 69/120/65 46/121/42 49/117/45 72/116/68
f 67/107/63 44/106/40 50/109/46 73/108/69
f 25/39/21 52/14/48 58/15/54 28/40/24
f 24/43/20 51/26/47 56/11/52 115/44/111
f 27/51/23 57/23/53 51/26/47 24/43/20
f 26/48/22 55/19/51 54/22/50 112/52/108
f 28/40/24 58/15/54 53/18/49 116/54/112
f 83/122/79 59/123/55 65/124/61 89/125/85
f 85/126/81 61/127/57 64/128/60 88/129/84
f 90/130/86 66/131/62 63/132/59 87/133/83
f 84/134/80 60/135/56 62/136/58 86/137/82
f 88/129/84 64/128/60 66/131/62 90/130/86
f 86/137/82 62/136/58 61/138/57 85/139/81
f 89/125/85 65/124/61 60/135/56 84/134/80
f 87/133/83 63/132/59 59/123/55 83/122/79
f 36/102/32 67/107/63 73/108/69 109/140/105 107/103/103
f 61/100/57 69/120/65 101/101/97
f 35/141/31 102/142/98 105/98/101
f 37/86/33 68/111/64 70/112/66 39/97/35
f 41/93/37 72/116/68 102/142/98 103/94/99
f 39/97/35 70/112/66 69/115/65 38/143/34
f 42/144/38 109/140/105 108/85/104
f 40/99/36 71/104/67 67/107/63 36/102/32
f 91/145/87 75/146/71 81/147/77 97/148/93
f 93/149/89 77/150/73 80/151/76 96/152/92
f 98/153/94 82/154/78 79/155/75 95/156/91
f 92/157/88 76/158/72 78/159/74 94/160/90
f 96/152/92 80/151/76 82/154/78 98/153/94
f 94/160/90 78/159/74 77/161/73 93/162/89
f 97/148/93 81/147/77 76/158/72 92/157/88
f 95/156/91 79/155/75 75/146/71 91/145/87
f 32/75/28 87/133/83 83/122/79 29/78/25
f 34/61/30 89/125/85 84/134/80 119/62/115
f 31/73/27 86/137/82 85/139/81 30/163/26
f 33/69/29 88/129/84 90/130/86 124/70/120
f 77/164/73 126/165/122 85/166/81
f 29/78/25 83/122/79 89/125/85 34/61/30
f 15/167/11 95/156/91 91/145/87 10/168/6
f 17/169/13 94/160/90 93/162/89 130/170/126
f 20/171/16 96/152/92 98/153/94 132/172/128
f 13/173/9 92/157/88 94/160/90 17/169/13
f 98/153/94 137/174/133 136/175/132
f 131/176/127 130/170/126 93/162/89
f 10/168/6 91/145/87 97/148/93 128/177/124
f 39/97/35 38/143/34 99/91/95 100/90/96
f 101/101/97 69/120/65 72/116/68 41/93/37
f 69/115/65 61/88/57 38/143/34
f 61/88/57 99/91/95 38/143/34
f 39/97/35 100/90/96 62/89/58
f 105/98/101 104/95/100 35/141/31
f 104/95/100 103/94/99 35/141/31
f 103/94/99 102/142/98 35/141/31
f 40/99/36 102/142/98 74/119/70 71/104/67
f 108/85/104 109/140/105 73/108/69 68/111/64 37/86/33
f 107/103/103 109/140/105 42/144/38
f 108/85/104 106/84/102 42/144/38
f 106/84/102 107/103/103 42/144/38
f 40/99/36 36/102/32 110/82/106 111/81/107
f 59/79/55 110/82/106 36/102/32
f 40/99/36 111/81/107 63/80/59
f 113/178/109 54/36/50 57/23/53 27/51/23
f 54/36/50 113/178/109 46/179/42
f 46/53/42 112/52/108 54/22/50
f 113/178/109 27/51/23 49/50/45 46/179/42
f 48/45/44 115/44/111 56/11/52
f 56/11/52 114/55/110 48/45/44
f 114/55/110 56/11/52 52/14/48 25/39/21
f 53/18/49 117/47/113 45/46/41
f 45/46/41 116/54/112 53/18/49
f 117/47/113 53/18/49 55/19/51 26/48/22
f 40/99/36 105/98/101 102/142/98
f 74/119/70 102/142/98 72/116/68
f 84/134/80 118/72/114 76/63/72
f 76/63/72 119/62/115 84/134/80
f 118/72/114 84/134/80 86/137/82 31/73/27
f 31/180/27 30/181/26 120/182/116 121/183/117
f 77/64/73 120/67/116 30/163/26
f 31/73/27 121/66/117 78/65/74
f 32/184/28 29/185/25 122/186/118 123/187/119
f 32/75/28 123/58/119 79/57/75
f 75/56/71 122/59/118 29/78/25
f 90/130/86 125/74/121 82/71/78
f 82/71/78 124/70/120 90/130/86
f 125/74/121 90/130/86 87/133/83 32/75/28
f 30/188/26 85/189/81 126/190/122 77/191/73
f 30/192/26 85/193/81 77/194/73
f 126/77/122 85/126/81 88/129/84 33/69/29
f 23/195/19 127/196/123 13/197/9 17/198/13 133/199/129
f 97/148/93 127/200/123 23/201/19
f 127/200/123 97/148/93 92/157/88 13/173/9
f 23/201/19 128/177/124 97/148/93
f 129/202/125 93/149/89 96/152/92 20/171/16
f 93/149/89 129/202/125 131/203/127
f 131/204/127 135/28/131 133/199/129 17/198/13 130/205/126
f 136/175/132 132/172/128 98/153/94
f 132/206/128 136/34/132 134/29/130 20/207/16
f 133/199/129 135/28/131 23/195/19
f 134/29/130 135/28/131 131/204/127 129/208/125 20/207/16
f 137/174/133 98/153/94 95/156/91 15/167/11
